<?xml version="1.0" encoding="utf-8"?>
<!-- Generator: Adobe Illustrator 22.0.1, SVG Export Plug-In . SVG Version: 6.00 Build 0)  -->
<svg version="1.1" id="Layer_1" xmlns="http://www.w3.org/2000/svg" xmlns:xlink="http://www.w3.org/1999/xlink" x="0px" y="0px"
	 viewBox="0 0 500 500" style="enable-background:new 0 0 500 500;" xml:space="preserve">
<style type="text/css">
	.st0{fill:#FEFFFF;}
</style>
<g>
	<path class="st0" d="M231.8,250.6l17.9,17.9l24.4-24.4l-17.9-17.9L231.8,250.6z M479.9,20.1C467.6,7.8,450.2,0,431.4,0H68.7
		C49.8,0,32.4,7.8,20.1,20.1C7.8,32.4,0,49.8,0,68.7v362.7c0,18.8,7.8,36.3,20.1,48.6C32.4,492.2,49.8,500,68.6,500h362.8
		c18.8,0,36.2-7.8,48.5-20.1c12.4-12.3,20.1-29.7,20.1-48.6V68.7C500,49.8,492.3,32.4,479.9,20.1z M418.4,168.2l-75.9,75.9
		l75.9,75.9v68.4L308.3,278.3L184.5,402.1h-68.3l99.4-99.4l-17.9-17.9L82.2,400.2v-68.4l81.3-81.3l-81.3-81.3V101l115.4,115.4
		L316.1,98h68.3l-94.1,94.1l17.9,17.9L418.4,99.9V168.2z"/>
</g>
</svg>
