<svg id="svg" version="1.1" width="400" height="296.6841186736475" xmlns="http://www.w3.org/2000/svg" xmlns:xlink="http://www.w3.org/1999/xlink" style="display: block;"><g id="svgg"><path id="path0" d="" stroke="none" fill="#000000" fill-rule="evenodd"></path><path id="path1" d="" stroke="none" fill="#7f7f7f" fill-rule="evenodd"></path><path id="path2" d="" stroke="none" fill="#aaaaaa" fill-rule="evenodd"></path><path id="path3" d="M130.625 5.194 C 129.924 5.928,129.223 6.528,129.067 6.528 C 128.911 6.528,128.783 6.671,128.783 6.846 C 128.783 7.257,128.028 8.012,127.618 8.012 C 127.443 8.012,127.300 8.138,127.300 8.292 C 127.300 8.664,120.245 15.727,119.874 15.727 C 119.715 15.727,119.585 15.847,119.585 15.994 C 119.585 16.342,117.529 18.398,117.181 18.398 C 117.034 18.398,116.914 18.541,116.914 18.716 C 116.914 19.126,116.159 19.881,115.748 19.881 C 115.573 19.881,115.430 20.007,115.430 20.162 C 115.430 20.533,108.376 27.596,108.004 27.596 C 107.845 27.596,107.715 27.704,107.715 27.835 C 107.715 28.215,105.741 30.267,105.375 30.267 C 105.193 30.267,105.045 30.410,105.045 30.585 C 105.045 30.996,104.290 31.751,103.879 31.751 C 103.704 31.751,103.561 31.922,103.561 32.130 C 103.561 32.339,103.294 32.702,102.967 32.938 C 102.390 33.354,102.374 33.706,102.374 46.158 L 102.374 58.950 103.106 59.342 C 103.508 59.557,103.767 59.847,103.682 59.985 C 103.596 60.124,103.734 60.237,103.988 60.237 C 104.243 60.237,104.451 60.415,104.451 60.632 C 104.451 60.850,104.778 61.203,105.179 61.417 C 105.579 61.631,105.879 61.954,105.846 62.135 C 105.813 62.315,105.953 62.430,106.157 62.389 C 106.361 62.348,106.528 62.453,106.528 62.621 C 106.528 62.967,108.304 64.787,108.318 64.456 C 108.323 64.339,108.463 64.477,108.629 64.763 C 108.795 65.048,109.135 65.282,109.383 65.282 C 109.631 65.282,110.035 65.482,110.280 65.727 C 110.612 66.060,110.628 66.172,110.341 66.172 C 110.130 66.172,110.254 66.380,110.616 66.634 C 110.979 66.888,111.276 67.289,111.276 67.524 C 111.276 67.760,111.417 67.953,111.590 67.953 C 111.763 67.953,111.822 67.819,111.721 67.656 C 111.620 67.493,111.601 67.359,111.679 67.359 C 111.757 67.359,112.110 67.826,112.463 68.398 C 112.836 69.001,113.344 69.436,113.674 69.436 C 113.987 69.436,114.260 69.570,114.280 69.733 C 114.301 69.896,114.334 70.157,114.355 70.314 C 114.375 70.470,114.659 70.799,114.985 71.046 C 115.312 71.293,115.412 71.499,115.208 71.504 C 115.004 71.509,114.837 71.641,114.837 71.796 C 114.837 72.086,111.965 75.074,111.686 75.074 C 111.465 75.074,110.682 75.884,110.682 76.113 C 110.682 76.360,109.892 77.151,109.644 77.151 C 109.336 77.151,108.605 77.971,108.605 78.317 C 108.605 78.492,108.505 78.635,108.383 78.635 C 108.004 78.636,106.528 80.020,106.528 80.376 C 106.528 80.561,106.385 80.712,106.210 80.712 C 105.791 80.712,105.045 81.470,105.045 81.895 C 105.045 82.080,104.911 82.148,104.748 82.047 C 104.585 81.947,104.451 82.072,104.451 82.327 C 104.451 82.581,104.308 82.789,104.133 82.789 C 103.722 82.789,102.967 83.544,102.967 83.955 C 102.967 84.130,102.834 84.273,102.671 84.273 C 102.478 84.273,102.374 88.625,102.374 96.736 C 102.374 103.750,102.488 109.199,102.636 109.199 C 102.780 109.199,102.971 109.476,103.059 109.814 C 103.148 110.153,103.508 110.505,103.861 110.597 C 104.345 110.724,104.405 110.826,104.105 111.016 C 103.821 111.196,103.898 111.268,104.377 111.271 C 104.775 111.274,105.045 111.458,105.045 111.727 C 105.045 111.976,105.382 112.333,105.795 112.521 C 106.339 112.769,106.441 112.929,106.166 113.103 C 105.906 113.268,105.998 113.345,106.454 113.349 C 106.916 113.352,107.122 113.531,107.122 113.929 C 107.122 114.246,107.276 114.600,107.464 114.717 C 107.689 114.856,107.733 114.786,107.591 114.512 C 107.472 114.283,107.564 114.327,107.797 114.610 C 108.029 114.893,108.317 115.026,108.437 114.906 C 108.557 114.787,108.628 114.822,108.595 114.985 C 108.435 115.777,108.605 116.187,108.902 115.727 C 109.141 115.357,109.190 115.380,109.194 115.866 C 109.200 116.553,110.623 117.876,111.064 117.604 C 111.231 117.500,111.278 117.560,111.169 117.737 C 111.059 117.916,111.254 118.148,111.608 118.260 C 112.107 118.419,112.156 118.518,111.834 118.722 C 111.529 118.916,111.595 118.983,112.092 118.987 C 112.553 118.990,112.760 119.169,112.760 119.567 C 112.760 119.884,112.914 120.238,113.102 120.355 C 113.327 120.494,113.371 120.424,113.229 120.150 C 113.110 119.920,113.202 119.965,113.435 120.248 C 113.667 120.531,113.955 120.664,114.075 120.544 C 114.195 120.424,114.266 120.460,114.233 120.623 C 114.096 121.301,114.250 121.814,114.481 121.451 C 114.644 121.194,114.817 121.266,115.091 121.705 C 115.378 122.163,115.382 122.261,115.110 122.092 C 114.876 121.948,114.821 121.990,114.957 122.209 C 115.073 122.398,115.461 122.554,115.819 122.556 C 116.347 122.560,116.386 122.615,116.024 122.849 C 115.564 123.146,115.974 123.316,116.766 123.156 C 116.929 123.123,116.967 123.191,116.850 123.308 C 116.493 123.666,117.196 124.629,117.815 124.629 C 118.220 124.629,118.399 124.832,118.402 125.297 C 118.406 125.837,118.462 125.879,118.694 125.519 C 118.941 125.137,118.983 125.146,118.987 125.584 C 118.989 125.864,119.358 126.293,119.807 126.537 C 120.256 126.780,120.451 126.985,120.241 126.991 C 119.928 127.001,119.928 127.079,120.241 127.415 C 120.518 127.714,120.683 127.734,120.841 127.489 C 120.971 127.289,121.061 127.419,121.064 127.809 C 121.068 128.437,121.972 129.210,122.365 128.921 C 122.468 128.845,122.490 128.868,122.414 128.971 C 122.141 129.342,122.882 130.267,123.453 130.267 C 123.858 130.267,124.037 130.470,124.040 130.935 C 124.043 131.414,124.116 131.491,124.296 131.206 C 124.487 130.905,124.585 130.958,124.708 131.428 C 124.797 131.768,125.183 132.171,125.565 132.325 C 125.948 132.478,126.089 132.612,125.879 132.622 C 125.566 132.637,125.566 132.717,125.879 133.053 C 126.089 133.280,126.332 133.352,126.420 133.213 C 126.507 133.075,126.750 133.237,126.961 133.574 C 127.276 134.079,127.274 134.151,126.951 133.985 C 126.735 133.875,126.811 133.990,127.121 134.241 C 127.431 134.493,127.801 134.627,127.944 134.538 C 128.087 134.450,128.185 134.487,128.162 134.622 C 128.028 135.394,128.199 135.757,128.487 135.312 C 128.699 134.983,128.775 134.969,128.779 135.259 C 128.785 135.764,129.518 136.497,130.023 136.503 C 130.300 136.506,130.316 136.572,130.077 136.726 C 129.832 136.884,129.853 137.049,130.152 137.326 C 130.488 137.639,130.565 137.639,130.568 137.326 C 130.571 137.116,130.741 137.277,130.948 137.685 L 131.323 138.427 164.920 138.503 L 198.516 138.578 198.516 123.731 L 198.516 108.884 194.496 104.887 C 192.285 102.689,190.291 100.890,190.065 100.890 C 189.839 100.890,189.572 100.630,189.471 100.312 C 189.370 99.994,189.009 99.645,188.670 99.538 C 188.183 99.383,188.139 99.287,188.462 99.082 C 188.770 98.887,188.710 98.821,188.225 98.818 C 187.853 98.815,187.501 98.574,187.399 98.252 C 187.117 97.362,186.689 97.338,171.291 97.333 C 156.876 97.329,156.677 97.321,156.677 96.736 C 156.677 96.150,156.874 96.142,171.404 96.142 C 188.003 96.142,186.957 96.283,188.872 93.790 C 189.362 93.153,190.024 92.559,190.343 92.470 C 190.662 92.381,190.848 92.233,190.756 92.141 C 190.563 91.947,192.936 89.414,193.208 89.524 C 193.392 89.599,194.898 88.020,195.031 87.612 C 195.071 87.489,195.200 87.421,195.318 87.460 C 195.435 87.499,195.688 87.232,195.880 86.866 C 196.072 86.501,196.410 86.095,196.631 85.964 C 196.852 85.834,197.033 85.511,197.033 85.247 C 197.033 84.983,197.117 84.852,197.220 84.955 C 197.323 85.058,197.657 85.009,197.962 84.846 C 198.491 84.563,198.516 83.932,198.516 71.185 C 198.516 57.376,198.483 56.973,197.351 56.973 C 197.176 56.973,197.066 56.806,197.107 56.602 C 197.148 56.398,197.014 56.265,196.810 56.306 C 196.606 56.346,196.439 56.237,196.439 56.062 C 196.439 55.538,195.634 54.896,194.977 54.896 C 194.622 54.896,194.362 54.704,194.362 54.441 C 194.362 54.191,193.867 53.491,193.262 52.886 C 192.656 52.280,192.280 51.984,192.426 52.228 C 192.572 52.471,192.226 52.203,191.658 51.632 C 191.090 51.061,190.632 50.515,190.639 50.419 C 190.661 50.143,188.823 48.665,188.459 48.665 C 188.278 48.665,188.131 48.522,188.131 48.347 C 188.131 47.203,187.831 47.181,171.980 47.181 L 156.677 47.181 156.677 46.142 L 156.677 45.104 171.958 45.104 C 185.345 45.104,187.240 45.049,187.240 44.659 C 187.240 44.414,187.341 44.213,187.463 44.213 C 187.841 44.213,189.470 42.683,189.392 42.402 C 189.351 42.256,189.435 42.136,189.579 42.136 C 189.957 42.136,192.283 39.755,192.294 39.357 C 192.306 38.951,193.011 37.982,193.295 37.982 C 193.618 37.982,194.955 36.558,194.955 36.215 C 194.955 36.045,195.232 35.905,195.570 35.905 C 195.908 35.905,196.385 35.705,196.630 35.460 C 196.875 35.215,196.931 35.015,196.755 35.015 C 196.542 35.015,196.559 34.815,196.805 34.421 C 197.009 34.095,197.286 33.828,197.422 33.828 C 198.480 33.828,198.516 33.323,198.516 18.419 L 198.516 3.858 165.208 3.859 L 131.899 3.860 130.625 5.194 M303.451 4.525 C 303.353 4.892,303.270 35.204,303.268 71.884 L 303.264 138.576 337.092 138.576 C 359.446 138.576,370.920 138.475,370.920 138.279 C 370.920 138.116,371.134 137.982,371.397 137.982 C 371.699 137.982,371.811 137.819,371.703 137.537 C 371.607 137.288,371.695 137.092,371.902 137.092 C 372.106 137.092,372.465 136.825,372.700 136.499 C 372.936 136.172,373.299 135.905,373.508 135.905 C 373.716 135.905,373.887 135.734,373.887 135.525 C 373.887 135.317,374.154 134.953,374.481 134.718 C 374.807 134.483,375.074 134.124,375.074 133.920 C 375.074 133.713,375.270 133.625,375.519 133.721 C 375.781 133.821,375.964 133.724,375.964 133.485 C 375.964 133.261,376.296 132.830,376.701 132.526 C 377.106 132.222,377.352 131.835,377.248 131.668 C 377.145 131.500,377.197 131.447,377.365 131.551 C 377.533 131.655,377.919 131.408,378.223 131.003 C 378.527 130.598,378.944 130.267,379.151 130.267 C 379.357 130.267,379.525 130.127,379.525 129.957 C 379.525 129.554,380.889 128.190,381.292 128.190 C 381.463 128.190,381.602 128.050,381.602 127.880 C 381.602 127.477,382.967 126.113,383.369 126.113 C 383.540 126.113,383.680 125.937,383.680 125.721 C 383.680 125.286,385.002 124.036,385.462 124.036 C 385.624 124.036,385.757 123.896,385.757 123.725 C 385.757 123.323,387.121 121.958,387.524 121.958 C 387.694 121.958,387.834 121.788,387.834 121.579 C 387.834 121.370,388.101 121.007,388.427 120.772 C 388.754 120.536,389.021 120.165,389.021 119.947 C 389.021 119.728,389.137 119.622,389.280 119.710 C 389.423 119.798,389.788 119.539,390.092 119.134 C 390.397 118.729,390.828 118.398,391.052 118.398 C 391.291 118.398,391.388 118.215,391.287 117.953 C 391.192 117.703,391.280 117.507,391.487 117.507 C 391.690 117.507,392.050 117.240,392.285 116.914 C 392.520 116.588,392.883 116.320,393.092 116.320 C 393.301 116.320,393.472 116.181,393.472 116.010 C 393.472 115.607,394.836 114.243,395.239 114.243 C 395.409 114.243,395.549 114.104,395.549 113.933 C 395.549 113.530,396.913 112.166,397.316 112.166 C 397.487 112.166,397.626 111.990,397.626 111.775 C 397.626 111.356,398.940 110.089,399.374 110.089 C 399.949 110.089,399.992 107.358,399.996 70.982 L 400.000 33.211 398.813 32.047 C 398.160 31.408,397.626 30.745,397.626 30.576 C 397.626 30.406,397.487 30.267,397.316 30.267 C 396.914 30.267,395.378 28.729,395.475 28.424 C 395.516 28.295,395.444 28.223,395.315 28.264 C 395.010 28.361,393.472 26.825,393.472 26.423 C 393.472 26.252,393.332 26.113,393.162 26.113 C 392.992 26.113,392.101 25.345,391.182 24.407 C 390.263 23.468,389.401 22.734,389.266 22.774 C 389.131 22.815,389.054 22.746,389.095 22.621 C 389.191 22.325,383.307 16.445,383.013 16.543 C 382.890 16.584,382.789 16.474,382.789 16.299 C 382.789 15.888,382.034 15.134,381.624 15.134 C 381.449 15.134,381.339 15.032,381.380 14.909 C 381.482 14.600,375.445 8.630,375.239 8.836 C 375.148 8.927,375.074 8.839,375.074 8.640 C 375.074 8.205,371.476 4.568,371.150 4.674 C 371.023 4.714,370.920 4.547,370.920 4.303 C 370.920 3.910,366.984 3.858,337.275 3.858 L 303.630 3.858 303.451 4.525 M1.187 57.135 L 1.187 109.819 1.915 110.548 C 2.316 110.948,2.783 111.276,2.954 111.276 C 3.124 111.276,3.264 111.416,3.264 111.586 C 3.264 111.989,4.628 113.353,5.031 113.353 C 5.202 113.353,5.341 113.504,5.341 113.690 C 5.341 114.045,6.817 115.429,7.196 115.430 C 7.318 115.430,7.418 115.582,7.418 115.767 C 7.418 116.122,8.894 117.506,9.273 117.507 C 9.395 117.507,9.496 117.652,9.496 117.828 C 9.496 118.192,12.442 121.068,12.814 121.068 C 12.947 121.068,13.056 121.276,13.056 121.531 C 13.056 121.785,13.190 121.911,13.353 121.810 C 13.516 121.709,13.650 121.843,13.650 122.107 C 13.650 122.371,13.760 122.519,13.894 122.436 C 14.123 122.294,15.134 123.255,15.134 123.615 C 15.134 123.911,15.972 124.629,16.317 124.629 C 16.501 124.629,16.570 124.763,16.469 124.926 C 16.368 125.089,16.471 125.223,16.698 125.223 C 16.925 125.223,17.289 125.556,17.507 125.964 C 17.726 126.372,18.090 126.706,18.317 126.706 C 18.544 126.706,18.647 126.840,18.546 127.003 C 18.445 127.166,18.571 127.300,18.825 127.300 C 19.080 127.300,19.288 127.439,19.288 127.610 C 19.288 128.013,20.652 129.377,21.055 129.377 C 21.225 129.377,21.365 129.520,21.365 129.695 C 21.365 130.218,22.171 130.861,22.827 130.861 C 23.166 130.861,23.459 130.994,23.479 131.157 C 23.500 131.320,23.533 131.592,23.553 131.762 C 23.605 132.192,24.395 132.637,24.735 132.427 C 24.890 132.331,24.922 132.407,24.806 132.595 C 24.680 132.798,24.783 132.938,25.057 132.938 C 25.311 132.938,25.519 133.070,25.519 133.232 C 25.519 133.682,26.764 135.015,27.184 135.015 C 27.388 135.015,27.598 135.310,27.650 135.670 C 27.708 136.073,28.031 136.405,28.487 136.531 C 28.895 136.644,29.028 136.751,28.783 136.770 C 28.398 136.800,28.396 136.841,28.769 137.077 C 29.006 137.227,29.340 137.270,29.511 137.173 C 29.682 137.076,29.727 137.103,29.610 137.232 C 29.493 137.361,29.529 137.713,29.690 138.013 C 29.969 138.535,30.859 138.560,49.657 138.571 L 69.332 138.584 69.713 137.870 C 69.923 137.478,70.399 136.994,70.772 136.795 C 71.144 136.596,71.619 136.114,71.828 135.724 C 72.036 135.334,72.328 135.015,72.475 135.015 C 72.845 135.015,73.591 134.236,73.591 133.849 C 73.591 133.674,73.691 133.565,73.813 133.605 C 74.080 133.694,77.745 129.986,77.745 129.627 C 77.745 129.489,77.884 129.377,78.055 129.377 C 78.226 129.377,78.693 129.049,79.094 128.649 C 79.494 128.248,79.822 127.781,79.822 127.610 C 79.822 127.439,79.922 127.300,80.045 127.299 C 80.424 127.299,81.899 125.914,81.899 125.559 C 81.899 125.374,82.050 125.223,82.236 125.223 C 82.591 125.223,83.975 123.747,83.976 123.368 C 83.976 123.246,84.116 123.145,84.286 123.145 C 84.689 123.145,86.225 121.608,86.128 121.302 C 86.087 121.173,86.196 121.068,86.371 121.068 C 86.782 121.068,87.537 120.313,87.537 119.903 C 87.537 119.728,87.708 119.585,87.917 119.585 C 88.125 119.585,88.489 119.318,88.724 118.991 C 88.959 118.665,89.293 118.398,89.465 118.398 C 89.638 118.398,90.008 118.131,90.287 117.804 C 90.567 117.478,90.709 117.211,90.605 117.211 C 90.500 117.211,90.701 116.961,91.053 116.657 C 91.404 116.352,91.691 115.951,91.691 115.766 C 91.691 115.582,92.025 115.430,92.433 115.430 C 92.969 115.430,93.175 115.271,93.175 114.857 C 93.175 114.532,93.450 114.196,93.808 114.083 C 94.305 113.925,94.352 113.826,94.030 113.622 C 93.705 113.416,93.728 113.361,94.139 113.358 C 94.425 113.355,94.659 113.220,94.659 113.056 C 94.659 112.893,94.926 112.760,95.252 112.760 C 95.582 112.760,95.846 112.562,95.846 112.315 C 95.846 112.070,95.987 111.869,96.160 111.869 C 96.333 111.869,96.379 111.715,96.262 111.527 C 96.135 111.321,96.181 111.265,96.375 111.385 C 96.554 111.495,97.040 111.219,97.456 110.770 L 98.211 109.955 98.141 57.277 L 98.071 4.599 79.896 4.523 C 67.317 4.470,61.721 4.543,61.721 4.759 C 61.721 5.164,60.358 6.528,59.954 6.528 C 59.784 6.528,59.644 6.659,59.644 6.819 C 59.644 6.978,58.876 7.867,57.938 8.794 C 56.999 9.720,56.265 10.591,56.306 10.729 C 56.346 10.867,56.237 10.979,56.062 10.979 C 55.887 10.979,55.544 11.180,55.299 11.424 C 55.054 11.669,54.930 11.869,55.023 11.869 C 55.117 11.869,54.926 12.136,54.599 12.463 C 54.273 12.789,53.872 13.056,53.709 13.056 C 53.546 13.056,53.412 13.331,53.412 13.667 C 53.412 14.003,53.279 14.196,53.116 14.095 C 52.953 13.994,52.819 14.187,52.819 14.523 C 52.819 14.859,52.679 15.134,52.509 15.134 C 52.338 15.134,51.871 15.461,51.470 15.862 L 50.742 16.590 50.742 42.716 L 50.742 68.843 49.555 68.843 L 48.368 68.843 48.368 42.350 C 48.368 16.198,48.360 15.853,47.774 15.430 C 47.448 15.195,47.181 14.832,47.181 14.623 C 47.181 14.414,47.041 14.243,46.871 14.243 C 46.468 14.243,45.104 12.879,45.104 12.476 C 45.104 12.306,44.952 12.166,44.767 12.166 C 44.412 12.166,43.028 10.691,43.027 10.312 C 43.027 10.189,42.826 10.089,42.582 10.089 C 42.337 10.089,42.134 9.922,42.130 9.718 C 42.126 9.514,41.848 9.013,41.511 8.605 C 41.174 8.197,40.990 8.040,41.103 8.256 C 41.273 8.582,41.201 8.582,40.681 8.257 C 40.336 8.042,40.184 7.822,40.344 7.768 C 40.516 7.711,40.487 7.512,40.273 7.281 C 40.009 6.996,39.852 6.982,39.693 7.229 C 39.563 7.430,39.473 7.304,39.470 6.917 C 39.468 6.559,39.312 6.171,39.123 6.055 C 38.904 5.919,38.862 5.974,39.006 6.208 C 39.175 6.480,39.077 6.476,38.619 6.189 C 38.180 5.915,38.108 5.742,38.365 5.579 C 38.642 5.402,38.640 5.349,38.353 5.346 C 38.149 5.343,37.982 5.141,37.982 4.896 C 37.982 4.505,35.740 4.451,19.585 4.451 L 1.187 4.451 1.187 57.135 M202.805 4.831 C 202.730 5.030,202.702 35.171,202.744 71.810 L 202.819 138.427 227.226 138.503 L 251.632 138.579 251.632 132.643 C 251.632 129.378,251.732 126.710,251.855 126.716 C 252.180 126.729,253.116 127.478,253.116 127.725 C 253.116 127.988,253.896 128.783,254.154 128.783 C 254.402 128.783,255.193 129.574,255.193 129.822 C 255.193 130.130,256.013 130.861,256.359 130.861 C 256.533 130.861,256.677 130.961,256.677 131.083 C 256.678 131.462,258.062 132.938,258.417 132.938 C 258.602 132.938,258.754 133.089,258.754 133.274 C 258.754 133.629,260.229 135.014,260.608 135.014 C 260.731 135.015,260.831 135.166,260.831 135.351 C 260.831 135.707,262.306 137.091,262.685 137.092 C 262.808 137.092,262.908 137.244,262.908 137.430 C 262.908 138.523,263.462 138.557,281.528 138.566 L 299.110 138.576 299.110 71.513 L 299.110 4.451 274.629 4.451 L 250.148 4.451 250.148 10.089 C 250.148 16.364,250.196 16.243,248.471 14.392 C 247.787 13.657,247.084 13.056,246.908 13.056 C 246.732 13.056,246.585 12.889,246.583 12.685 C 246.580 12.438,246.483 12.463,246.291 12.760 C 246.062 13.114,246.002 13.121,245.999 12.794 C 245.994 12.383,244.557 10.980,244.139 10.980 C 244.017 10.979,243.917 10.836,243.917 10.661 C 243.917 10.250,243.162 9.496,242.751 9.496 C 242.576 9.496,242.429 9.262,242.424 8.976 C 242.410 8.217,241.647 7.277,241.448 7.774 C 241.346 8.028,241.285 7.986,241.270 7.651 C 241.257 7.372,240.954 6.986,240.597 6.795 C 240.240 6.604,239.681 6.199,239.354 5.895 C 239.028 5.590,238.652 5.341,238.520 5.341 C 238.387 5.341,238.279 5.139,238.279 4.892 C 238.279 4.287,203.034 4.226,202.805 4.831 M352.596 54.872 C 352.719 54.885,352.819 62.285,352.819 71.316 L 352.819 87.735 351.780 87.735 L 350.742 87.735 350.742 71.232 L 350.742 54.728 351.558 54.788 C 352.007 54.821,352.474 54.859,352.596 54.872 M101.488 228.900 C 101.484 289.882,101.527 296.096,101.953 296.259 C 102.211 296.358,117.247 296.439,135.366 296.439 L 168.309 296.439 169.347 295.401 C 169.918 294.829,170.520 294.362,170.685 294.362 C 170.849 294.362,170.904 294.155,170.807 293.902 C 170.705 293.637,170.755 293.518,170.923 293.622 C 171.085 293.722,171.217 293.595,171.217 293.341 C 171.217 293.087,171.396 292.878,171.616 292.878 C 172.159 292.878,173.052 291.851,172.775 291.546 C 172.652 291.410,172.699 291.383,172.878 291.485 C 173.362 291.761,175.196 289.852,174.834 289.450 C 174.721 289.325,174.797 289.319,175.002 289.437 C 175.220 289.563,175.449 289.459,175.553 289.188 C 175.651 288.933,175.903 288.724,176.112 288.724 C 176.322 288.724,176.577 288.390,176.680 287.982 C 176.782 287.574,177.043 287.240,177.259 287.240 C 177.788 287.240,178.694 286.211,178.413 285.930 C 178.290 285.808,178.390 285.752,178.635 285.806 C 178.881 285.861,179.044 285.730,178.999 285.512 C 178.954 285.296,179.054 285.204,179.221 285.307 C 179.553 285.512,180.984 284.040,181.000 283.478 C 181.005 283.285,181.309 283.085,181.677 283.033 C 182.106 282.972,182.378 282.699,182.439 282.270 C 182.491 281.903,182.700 281.602,182.903 281.602 C 183.452 281.602,184.911 279.973,184.648 279.653 C 184.523 279.501,184.542 279.475,184.690 279.596 C 184.965 279.820,186.647 278.260,186.647 277.780 C 186.647 277.633,186.981 277.429,187.389 277.326 C 187.797 277.224,188.131 276.957,188.131 276.732 C 188.131 276.508,188.339 276.245,188.594 276.147 C 188.850 276.049,188.973 275.831,188.869 275.662 C 188.765 275.494,188.790 275.388,188.925 275.426 C 189.252 275.521,190.504 274.699,190.504 274.390 C 190.504 274.256,190.905 273.809,191.395 273.397 C 191.884 272.985,192.285 272.516,192.285 272.356 C 192.285 271.891,192.998 271.306,193.400 271.440 C 193.603 271.508,193.769 271.384,193.769 271.164 C 193.769 270.945,194.036 270.599,194.362 270.395 C 194.688 270.191,194.955 269.818,194.955 269.565 C 194.955 269.311,195.088 269.187,195.251 269.287 C 195.550 269.472,197.033 268.079,197.033 267.612 C 197.033 267.473,197.233 267.359,197.478 267.359 C 197.867 267.359,197.923 265.732,197.923 254.500 L 197.923 241.641 197.107 240.906 C 196.658 240.502,196.025 239.812,195.701 239.373 C 195.377 238.935,194.943 238.576,194.737 238.576 C 194.531 238.576,194.362 238.433,194.362 238.258 C 194.362 237.871,193.616 237.092,193.246 237.092 C 193.099 237.092,192.808 236.773,192.599 236.383 C 192.390 235.993,191.900 235.503,191.510 235.294 C 191.120 235.085,190.801 234.729,190.801 234.502 C 190.801 234.275,190.668 234.172,190.504 234.273 C 190.341 234.374,190.208 234.271,190.208 234.044 C 190.208 233.817,189.874 233.453,189.466 233.234 C 189.058 233.016,188.724 232.720,188.724 232.577 C 188.724 232.212,187.333 230.861,186.957 230.861 C 186.786 230.861,186.647 230.717,186.647 230.543 C 186.647 230.163,186.042 229.521,185.519 229.347 C 185.281 229.268,185.566 228.770,186.305 227.978 C 186.943 227.293,187.392 226.661,187.303 226.571 C 187.214 226.482,187.303 226.409,187.501 226.409 C 187.939 226.409,189.495 224.892,189.392 224.566 C 189.351 224.438,189.445 224.332,189.602 224.332 C 189.758 224.332,191.694 222.528,193.904 220.323 L 197.923 216.314 197.923 203.261 C 197.923 195.229,197.815 190.208,197.641 190.208 C 197.233 190.208,195.846 188.864,195.846 188.467 C 195.846 188.282,195.675 188.131,195.467 188.131 C 195.019 188.131,193.474 186.447,193.707 186.214 C 193.795 186.126,193.702 186.053,193.500 186.053 C 193.115 186.053,192.285 185.344,192.285 185.015 C 192.285 184.910,192.085 184.624,191.840 184.379 C 191.595 184.134,191.395 184.035,191.395 184.159 C 191.395 184.283,191.128 184.098,190.801 183.748 C 190.475 183.398,190.208 183.029,190.208 182.929 C 190.208 182.641,189.516 182.033,188.940 181.815 C 188.651 181.705,188.324 181.379,188.215 181.090 C 187.994 180.507,187.387 179.822,187.092 179.822 C 186.784 179.822,186.053 179.002,186.053 178.656 C 186.053 178.481,185.953 178.338,185.831 178.338 C 185.452 178.337,183.976 176.953,183.976 176.598 C 183.976 176.413,183.838 176.261,183.670 176.261 C 183.254 176.261,181.618 174.564,181.830 174.352 C 181.922 174.260,181.833 174.184,181.631 174.184 C 181.246 174.184,180.415 173.474,180.415 173.145 C 180.415 173.040,180.215 172.754,179.970 172.510 C 179.726 172.265,179.525 172.161,179.525 172.280 C 179.525 172.399,179.258 172.254,178.932 171.958 C 178.605 171.663,178.338 171.299,178.338 171.149 C 178.338 170.839,177.587 170.030,177.300 170.030 C 177.052 170.030,176.261 169.239,176.261 168.991 C 176.261 168.757,175.476 167.953,175.247 167.953 C 174.887 167.953,173.927 166.942,174.068 166.713 C 174.151 166.579,174.111 166.469,173.979 166.468 C 173.624 166.468,172.107 165.109,172.107 164.792 C 172.107 164.642,171.714 164.288,171.235 164.004 C 170.755 163.721,170.288 163.258,170.197 162.976 C 169.788 161.713,170.006 161.721,134.959 161.721 L 101.491 161.721 101.488 228.900 M229.748 162.165 C 229.544 162.397,229.377 162.725,229.377 162.895 C 229.377 163.066,229.277 163.180,229.154 163.150 C 228.851 163.075,225.223 166.682,225.223 167.058 C 225.223 167.224,225.083 167.359,224.912 167.359 C 224.742 167.359,224.274 167.687,223.874 168.087 C 223.473 168.488,223.145 168.955,223.145 169.126 C 223.145 169.297,222.977 169.436,222.771 169.436 C 222.565 169.436,222.131 169.793,221.806 170.230 C 221.062 171.232,220.138 172.107,219.825 172.107 C 219.693 172.107,219.585 172.250,219.585 172.425 C 219.585 172.771,218.854 173.591,218.546 173.591 C 218.238 173.591,217.507 174.410,217.507 174.756 C 217.507 174.931,217.407 175.049,217.285 175.019 C 216.982 174.944,213.353 178.552,213.353 178.928 C 213.353 179.093,213.253 179.229,213.131 179.229 C 212.781 179.229,211.276 180.601,211.276 180.919 C 211.276 181.077,210.957 181.376,210.567 181.585 C 210.177 181.794,209.687 182.284,209.478 182.674 C 209.269 183.064,208.970 183.383,208.812 183.383 C 208.494 183.383,207.123 184.888,207.122 185.237 C 207.122 185.360,206.979 185.460,206.804 185.460 C 206.385 185.460,205.638 186.218,205.638 186.643 C 205.638 186.828,205.538 186.927,205.415 186.864 C 205.124 186.714,202.675 189.223,202.897 189.445 C 202.990 189.538,202.892 189.614,202.679 189.614 C 201.485 189.614,201.503 189.017,201.493 228.730 C 201.483 268.686,201.452 267.656,202.667 267.656 C 202.851 267.656,202.935 267.765,202.852 267.900 C 202.710 268.129,203.671 269.139,204.031 269.139 C 204.319 269.139,205.045 269.974,205.045 270.305 C 205.045 270.480,205.145 270.623,205.267 270.624 C 205.656 270.624,207.122 272.013,207.122 272.381 C 207.122 272.576,207.255 272.653,207.418 272.552 C 207.582 272.451,207.715 272.519,207.715 272.704 C 207.715 273.063,208.438 273.887,208.754 273.887 C 208.988 273.887,209.792 274.672,209.792 274.901 C 209.792 275.261,210.803 276.222,211.032 276.080 C 211.166 275.997,211.276 276.080,211.276 276.265 C 211.276 276.690,212.023 277.448,212.442 277.448 C 212.617 277.448,212.760 277.586,212.760 277.754 C 212.760 278.157,216.201 281.602,216.603 281.602 C 216.774 281.602,216.881 281.708,216.840 281.836 C 216.743 282.142,218.279 283.680,218.681 283.680 C 218.851 283.680,218.991 283.819,218.991 283.989 C 218.991 284.160,220.660 285.954,222.700 287.976 C 224.740 289.999,226.409 291.796,226.409 291.969 C 226.409 292.143,226.549 292.285,226.719 292.285 C 226.890 292.285,227.746 293.019,228.622 293.917 L 230.216 295.549 249.398 295.549 C 262.111 295.549,268.519 295.449,268.398 295.252 C 268.297 295.089,268.365 294.955,268.550 294.955 C 268.975 294.955,269.733 294.209,269.733 293.790 C 269.733 293.615,269.902 293.472,270.108 293.472 C 270.314 293.472,270.733 293.138,271.039 292.730 C 271.346 292.322,271.769 291.988,271.980 291.988 C 272.191 291.988,272.448 291.721,272.552 291.395 C 272.656 291.068,272.939 290.801,273.183 290.801 C 273.426 290.801,273.555 290.687,273.469 290.548 C 273.383 290.409,273.642 290.144,274.045 289.961 C 274.448 289.777,274.777 289.424,274.777 289.176 C 274.777 288.927,274.944 288.757,275.148 288.798 C 275.352 288.839,275.486 288.705,275.445 288.501 C 275.404 288.297,275.504 288.131,275.668 288.131 C 275.831 288.131,275.964 287.930,275.964 287.685 C 275.964 287.441,276.165 287.240,276.409 287.240 C 276.654 287.240,276.857 287.073,276.859 286.869 C 276.862 286.622,276.960 286.647,277.151 286.944 C 277.424 287.366,277.615 286.812,277.483 285.979 C 277.464 285.857,277.615 285.790,277.819 285.831 C 278.023 285.872,278.158 285.743,278.119 285.545 C 278.078 285.337,278.235 285.256,278.490 285.354 C 278.768 285.461,278.932 285.347,278.932 285.047 C 278.932 284.784,279.146 284.570,279.409 284.570 C 279.718 284.570,279.823 284.408,279.709 284.109 C 279.607 283.845,279.657 283.726,279.825 283.830 C 279.987 283.930,280.119 283.803,280.119 283.549 C 280.119 283.294,280.219 283.102,280.341 283.121 C 280.933 283.215,281.322 283.056,281.157 282.789 C 281.056 282.626,281.115 282.493,281.288 282.493 C 281.461 282.493,281.602 282.292,281.602 282.047 C 281.602 281.803,281.803 281.602,282.047 281.602 C 282.292 281.602,282.493 281.461,282.493 281.288 C 282.493 281.115,282.626 281.056,282.789 281.157 C 282.953 281.258,283.086 281.141,283.086 280.898 C 283.086 280.655,283.346 280.373,283.664 280.272 C 283.982 280.171,284.325 279.828,284.426 279.510 C 284.527 279.192,284.809 278.932,285.052 278.932 C 285.296 278.932,285.418 278.808,285.325 278.656 C 285.231 278.505,285.417 278.298,285.737 278.196 C 286.058 278.094,286.403 277.749,286.505 277.429 C 286.606 277.108,286.814 276.923,286.965 277.016 C 287.116 277.110,287.240 276.974,287.240 276.714 C 287.240 276.455,287.440 276.166,287.684 276.072 C 287.928 275.979,288.054 275.784,287.965 275.640 C 287.876 275.496,288.010 275.457,288.264 275.554 C 288.562 275.669,288.724 275.563,288.724 275.254 C 288.724 274.992,288.910 274.777,289.137 274.777 C 289.364 274.777,289.634 274.444,289.736 274.036 C 289.872 273.494,290.121 273.294,290.658 273.294 C 291.331 273.294,291.568 272.907,291.430 272.033 C 291.410 271.910,291.495 271.831,291.617 271.857 C 292.078 271.955,292.878 271.434,292.878 271.037 C 292.878 270.809,293.030 270.623,293.215 270.623 C 293.611 270.623,294.955 269.236,294.955 268.827 C 294.955 268.673,295.089 268.546,295.252 268.546 C 295.415 268.546,295.549 268.346,295.549 268.101 C 295.549 267.856,295.749 267.656,295.994 267.656 C 296.239 267.656,296.439 267.522,296.439 267.359 C 296.439 267.196,296.647 267.062,296.902 267.062 C 297.156 267.062,297.288 266.938,297.194 266.786 C 297.100 266.634,297.159 266.426,297.325 266.323 C 297.526 266.199,297.626 253.585,297.626 228.223 L 297.626 190.308 296.894 189.916 C 296.492 189.701,296.233 189.411,296.318 189.273 C 296.404 189.134,296.333 189.021,296.160 189.021 C 295.733 189.021,294.665 187.926,294.881 187.710 C 294.977 187.615,294.832 187.537,294.560 187.537 C 294.288 187.537,294.099 187.370,294.139 187.166 C 294.180 186.962,294.047 186.829,293.843 186.869 C 293.639 186.910,293.472 186.840,293.472 186.713 C 293.472 186.386,291.783 184.577,291.625 184.735 C 291.553 184.807,291.316 184.532,291.098 184.124 C 290.879 183.716,290.523 183.383,290.306 183.383 C 290.089 183.383,289.911 183.255,289.911 183.100 C 289.911 182.656,288.449 181.306,287.969 181.306 C 287.731 181.306,287.561 181.205,287.590 181.083 C 287.620 180.961,286.952 180.160,286.107 179.304 C 285.261 178.447,284.570 177.823,284.570 177.915 C 284.570 178.008,284.369 177.884,284.125 177.639 C 283.880 177.394,283.680 177.057,283.680 176.891 C 283.680 176.724,283.179 176.214,282.567 175.757 C 281.955 175.300,281.211 174.625,280.913 174.258 C 280.616 173.891,280.159 173.591,279.899 173.591 C 279.639 173.591,279.511 173.506,279.614 173.402 C 279.828 173.189,278.723 171.681,278.311 171.625 C 278.163 171.604,277.908 171.571,277.745 171.550 C 277.582 171.530,277.448 171.370,277.448 171.195 C 277.448 170.850,276.718 170.030,276.409 170.030 C 276.162 170.030,275.371 169.239,275.371 168.991 C 275.371 168.744,274.580 167.953,274.332 167.953 C 274.047 167.953,273.294 167.144,273.294 166.837 C 273.294 166.690,272.960 166.390,272.552 166.172 C 272.144 165.954,271.810 165.589,271.810 165.363 C 271.810 165.136,271.677 165.033,271.513 165.134 C 271.350 165.234,271.217 165.131,271.217 164.904 C 271.217 164.678,270.883 164.313,270.475 164.095 C 270.067 163.877,269.733 163.577,269.733 163.430 C 269.733 163.052,268.950 162.315,268.550 162.315 C 268.365 162.315,268.297 162.181,268.398 162.018 C 268.720 161.497,230.207 161.643,229.748 162.165 M301.798 176.039 L 301.795 190.356 302.643 191.320 C 303.109 191.851,303.640 192.285,303.822 192.285 C 304.005 192.285,304.154 192.424,304.154 192.595 C 304.154 192.998,305.518 194.362,305.921 194.362 C 306.092 194.362,306.231 194.505,306.231 194.680 C 306.231 195.099,306.990 195.846,307.415 195.846 C 307.599 195.846,307.668 195.979,307.567 196.142 C 307.466 196.306,307.592 196.439,307.846 196.439 C 308.100 196.439,308.309 196.582,308.309 196.757 C 308.309 197.176,309.067 197.923,309.492 197.923 C 309.676 197.923,309.745 198.056,309.644 198.220 C 309.543 198.383,309.669 198.516,309.923 198.516 C 310.178 198.516,310.386 198.688,310.386 198.897 C 310.386 199.379,312.001 200.355,312.320 200.066 C 312.451 199.948,312.472 200.003,312.366 200.188 C 312.173 200.526,313.211 202.091,313.593 202.036 C 313.706 202.020,318.038 202.023,323.220 202.042 L 332.641 202.077 332.641 203.116 L 332.641 204.154 323.890 204.154 L 315.139 204.154 315.210 249.777 L 315.282 295.401 350.520 295.476 L 385.759 295.551 385.683 249.927 L 385.608 204.303 377.226 204.224 L 368.843 204.145 368.843 203.111 L 368.843 202.077 378.211 202.077 C 387.819 202.077,388.427 202.008,388.427 200.911 C 388.427 200.737,388.567 200.593,388.738 200.593 C 389.068 200.593,390.504 199.261,390.504 198.954 C 390.504 198.712,391.300 197.923,391.543 197.923 C 391.851 197.923,392.582 197.103,392.582 196.757 C 392.582 196.582,392.949 196.437,393.398 196.435 C 394.034 196.431,394.115 196.367,393.769 196.142 C 393.391 195.899,393.405 195.854,393.860 195.850 C 394.155 195.848,394.320 195.722,394.227 195.570 C 394.133 195.419,394.319 195.212,394.639 195.110 C 394.960 195.008,395.305 194.663,395.407 194.343 C 395.508 194.022,395.704 193.829,395.841 193.914 C 395.979 193.999,396.269 193.667,396.486 193.177 C 396.717 192.655,397.106 192.285,397.423 192.285 C 398.019 192.285,398.813 191.619,398.813 191.119 C 398.813 190.944,399.013 190.801,399.258 190.801 C 399.648 190.801,399.703 188.988,399.703 176.261 L 399.703 161.721 350.753 161.721 L 301.802 161.721 301.798 176.039 M166.469 203.116 L 166.469 204.154 150.000 204.154 L 133.531 204.154 133.531 203.116 L 133.531 202.077 150.000 202.077 L 166.469 202.077 166.469 203.116 M250.148 228.635 C 250.148 245.203,250.141 245.401,249.555 245.401 C 248.968 245.401,248.961 245.203,248.961 228.635 C 248.961 212.067,248.968 211.869,249.555 211.869 C 250.141 211.869,250.148 212.067,250.148 228.635 M166.469 254.154 L 166.469 255.193 150.000 255.193 L 133.531 255.193 133.531 254.154 L 133.531 253.116 150.000 253.116 L 166.469 253.116 166.469 254.154 " stroke="none" fill="#ffffff" fill-rule="evenodd"></path><path id="path4" d="" stroke="none" fill="#7fffff" fill-rule="evenodd"></path></g></svg>