<svg id="svg" version="1.1" width="400" height="400" xmlns="http://www.w3.org/2000/svg" xmlns:xlink="http://www.w3.org/1999/xlink" style="display: block;"><g id="svgg"><path id="path0" d="M135.250 72.939 C 129.467 73.782,123.421 77.131,120.728 80.983 C 120.190 81.753,119.375 82.923,118.917 83.585 C 118.458 84.246,117.521 85.587,116.833 86.566 C 115.478 88.496,112.071 93.363,111.667 93.949 C 111.529 94.148,110.884 95.084,110.232 96.030 C 109.580 96.976,108.517 98.500,107.870 99.417 C 106.211 101.766,104.662 103.978,103.317 105.917 C 102.681 106.833,102.054 107.733,101.924 107.917 C 101.056 109.135,99.622 111.163,99.333 111.583 C 99.144 111.858,98.415 112.908,97.713 113.917 C 97.011 114.925,96.152 116.162,95.803 116.667 C 95.046 117.762,93.940 119.350,92.902 120.833 C 92.485 121.429,91.620 122.667,90.979 123.583 C 90.338 124.500,89.425 125.806,88.949 126.486 C 88.473 127.165,87.633 128.372,87.083 129.167 C 86.533 129.962,85.671 131.198,85.167 131.913 C 84.064 133.479,83.611 134.129,82.066 136.368 C 81.415 137.311,80.350 138.833,79.700 139.750 C 79.049 140.667,78.284 141.754,77.999 142.167 C 77.714 142.579,76.775 143.929,75.914 145.167 C 75.052 146.404,74.191 147.642,74.000 147.917 C 73.809 148.192,73.187 149.066,72.618 149.860 C 71.657 151.201,69.603 154.143,67.000 157.905 C 65.422 160.186,64.162 161.995,62.617 164.199 C 61.865 165.271,60.650 167.019,59.917 168.082 C 59.183 169.146,58.113 170.669,57.538 171.467 C 56.963 172.264,55.964 173.692,55.317 174.641 C 54.671 175.589,53.366 177.464,52.418 178.807 C 51.471 180.151,50.385 181.700,50.005 182.250 C 49.005 183.698,46.777 186.882,45.333 188.924 C 44.646 189.897,43.972 190.855,43.837 191.054 C 43.701 191.254,42.839 192.494,41.920 193.810 C 41.002 195.126,39.783 196.888,39.213 197.726 C 38.643 198.564,38.067 199.400,37.934 199.583 C 37.631 200.000,34.704 204.155,34.001 205.167 C 32.429 207.430,30.210 210.598,29.295 211.888 C 28.720 212.698,28.139 213.523,28.004 213.722 C 27.656 214.232,24.536 218.717,23.694 219.917 C 23.307 220.467,22.209 222.042,21.253 223.417 C 20.298 224.792,19.358 226.142,19.166 226.417 C 17.490 228.817,14.379 233.262,13.500 234.512 C 12.904 235.360,12.061 236.562,11.627 237.184 C 11.066 237.988,10.644 238.890,10.169 240.307 L 9.500 242.300 9.500 245.402 C 9.500 247.109,9.568 248.635,9.650 248.794 C 9.733 248.953,10.040 249.833,10.332 250.750 C 11.033 252.953,12.211 254.877,13.990 256.723 C 15.228 258.008,18.059 260.167,18.506 260.167 C 18.589 260.167,19.086 260.363,19.611 260.603 C 24.794 262.974,33.240 261.446,37.160 257.428 C 37.568 257.009,37.992 256.667,38.101 256.667 C 38.270 256.667,39.430 255.197,40.666 253.417 C 41.462 252.270,46.712 244.649,47.530 243.453 C 48.018 242.740,48.604 241.899,48.833 241.584 C 49.063 241.269,49.912 240.053,50.721 238.881 C 51.529 237.709,53.205 235.287,54.444 233.500 C 55.683 231.713,57.181 229.537,57.774 228.667 C 58.366 227.796,59.298 226.446,59.844 225.667 C 60.391 224.887,61.403 223.425,62.093 222.417 C 62.783 221.408,63.950 219.721,64.686 218.667 C 65.421 217.612,66.463 216.112,67.000 215.333 C 67.538 214.554,68.654 212.942,69.481 211.750 C 70.307 210.558,71.643 208.608,72.449 207.417 C 73.255 206.225,74.403 204.559,74.999 203.713 C 75.595 202.868,76.593 201.443,77.216 200.547 C 77.838 199.650,78.929 198.092,79.639 197.083 C 80.350 196.075,81.153 194.900,81.424 194.472 C 81.695 194.044,82.642 192.656,83.529 191.388 C 85.345 188.793,86.233 187.517,87.568 185.583 C 88.075 184.850,89.013 183.500,89.652 182.583 C 90.292 181.667,91.532 179.867,92.409 178.583 C 93.286 177.300,94.373 175.725,94.825 175.083 C 95.277 174.442,96.369 172.867,97.250 171.583 C 98.132 170.300,99.300 168.612,99.846 167.833 C 100.392 167.054,101.330 165.704,101.929 164.833 C 102.529 163.962,103.671 162.306,104.468 161.152 C 105.265 159.998,106.299 158.498,106.767 157.818 C 107.235 157.139,107.855 156.246,108.145 155.833 C 108.435 155.421,109.161 154.371,109.758 153.500 C 110.356 152.629,111.550 150.904,112.412 149.667 C 113.275 148.429,114.641 146.457,115.449 145.285 C 116.256 144.113,117.161 142.800,117.459 142.368 C 117.757 141.937,118.257 141.208,118.569 140.750 C 118.882 140.292,119.485 139.429,119.910 138.833 C 120.335 138.237,121.009 137.262,121.410 136.667 C 121.810 136.071,122.712 134.758,123.415 133.750 C 124.118 132.742,125.100 131.317,125.597 130.583 C 126.094 129.850,127.002 128.537,127.615 127.667 C 129.283 125.296,131.064 122.727,131.947 121.417 C 132.380 120.775,132.781 120.212,132.840 120.167 C 132.898 120.121,133.150 119.746,133.399 119.333 C 133.649 118.921,134.257 118.021,134.752 117.333 C 135.246 116.646,136.272 115.165,137.030 114.042 C 137.789 112.919,138.506 112.000,138.624 112.000 C 138.972 112.000,140.164 113.349,141.417 115.160 C 142.058 116.087,142.921 117.322,143.333 117.903 C 144.186 119.104,144.661 119.780,147.033 123.167 C 147.964 124.496,149.121 126.146,149.604 126.833 C 150.088 127.521,150.896 128.683,151.400 129.417 C 152.605 131.169,156.529 136.770,157.026 137.448 C 157.241 137.740,157.666 138.340,157.970 138.781 C 158.501 139.552,161.437 143.730,161.931 144.417 C 162.062 144.600,162.638 145.431,163.210 146.264 C 164.189 147.690,165.440 149.478,167.167 151.917 C 167.579 152.500,168.517 153.846,169.250 154.909 C 169.983 155.971,171.049 157.495,171.618 158.295 C 172.187 159.095,172.809 159.975,173.001 160.250 C 174.254 162.048,176.840 165.745,177.434 166.583 C 177.823 167.133,178.634 168.296,179.236 169.167 C 179.839 170.037,180.628 171.162,180.989 171.667 C 181.351 172.171,182.217 173.408,182.914 174.417 C 183.610 175.425,184.557 176.775,185.016 177.417 C 185.476 178.058,186.118 178.986,186.444 179.479 C 186.770 179.971,187.634 181.208,188.365 182.229 C 189.096 183.249,189.798 184.233,189.926 184.417 C 190.054 184.600,191.127 186.137,192.310 187.833 C 193.494 189.529,194.790 191.386,195.190 191.959 C 195.590 192.532,196.091 193.245,196.304 193.542 C 196.517 193.840,197.134 194.721,197.675 195.500 C 199.699 198.418,200.595 199.697,201.000 200.246 C 201.229 200.557,201.754 201.306,202.167 201.911 C 202.579 202.516,203.673 204.080,204.598 205.387 C 205.523 206.693,206.723 208.405,207.265 209.191 C 207.807 209.977,208.737 211.312,209.333 212.158 C 210.436 213.723,213.398 217.958,216.198 221.975 C 217.052 223.199,217.825 224.287,217.917 224.392 C 218.008 224.497,218.360 224.996,218.698 225.500 C 219.037 226.004,219.764 227.054,220.314 227.833 C 220.865 228.612,221.751 229.877,222.283 230.642 C 223.216 231.985,223.670 232.635,224.760 234.190 C 225.041 234.589,225.709 235.554,226.246 236.333 C 226.783 237.112,227.496 238.125,227.830 238.583 C 228.165 239.042,228.854 240.017,229.362 240.750 C 230.406 242.258,231.801 244.255,233.745 247.024 C 234.476 248.065,235.338 249.301,235.662 249.771 C 235.985 250.242,236.720 251.292,237.295 252.105 C 237.870 252.918,238.913 254.408,239.614 255.417 C 243.085 260.412,247.944 264.164,252.500 265.367 C 253.205 265.553,254.836 265.959,255.750 266.176 C 257.590 266.613,264.631 266.491,265.246 266.012 C 265.340 265.939,265.751 265.828,266.160 265.765 C 266.891 265.653,269.057 264.978,269.626 264.685 C 269.786 264.603,270.479 264.269,271.167 263.944 C 274.545 262.346,277.330 260.050,280.041 256.628 C 284.353 251.187,285.138 250.173,285.918 249.041 C 286.375 248.375,287.183 247.213,287.712 246.457 C 288.241 245.702,289.164 244.371,289.762 243.500 C 290.360 242.629,291.377 241.167,292.021 240.250 C 292.665 239.333,293.370 238.321,293.589 238.000 C 293.807 237.679,294.274 237.004,294.625 236.500 C 296.177 234.273,296.823 233.342,297.917 231.751 C 298.558 230.818,299.554 229.386,300.130 228.569 C 301.117 227.167,302.910 224.594,304.591 222.167 C 305.004 221.571,306.033 220.095,306.879 218.887 C 307.725 217.679,309.293 215.429,310.363 213.887 C 311.434 212.345,312.493 210.821,312.717 210.500 C 312.941 210.179,314.398 208.079,315.955 205.833 C 317.513 203.588,319.024 201.412,319.314 201.000 C 319.604 200.588,320.274 199.612,320.802 198.833 C 321.329 198.054,322.209 196.787,322.756 196.018 C 323.303 195.248,324.217 193.936,324.789 193.101 C 325.360 192.266,325.912 191.464,326.015 191.317 C 326.254 190.979,329.537 186.249,329.995 185.583 C 330.184 185.308,330.661 184.633,331.054 184.083 C 331.447 183.533,332.259 182.371,332.858 181.500 C 333.456 180.629,334.729 178.792,335.685 177.417 C 336.641 176.042,337.722 174.485,338.087 173.957 C 338.452 173.429,339.187 172.379,339.721 171.624 C 340.255 170.868,341.022 169.762,341.426 169.167 C 341.830 168.571,342.373 167.783,342.634 167.417 C 343.316 166.457,344.755 164.387,345.415 163.417 C 345.727 162.958,346.431 161.946,346.980 161.167 C 347.529 160.387,348.466 159.037,349.063 158.167 C 349.660 157.296,350.756 155.721,351.499 154.667 C 352.241 153.612,353.261 152.150,353.764 151.417 C 354.267 150.683,355.203 149.333,355.844 148.417 C 356.485 147.500,357.424 146.150,357.930 145.417 C 358.437 144.683,359.298 143.446,359.844 142.667 C 360.390 141.887,361.374 140.462,362.032 139.500 C 362.690 138.537,363.720 137.060,364.322 136.216 C 364.924 135.373,366.048 133.760,366.820 132.633 C 367.592 131.506,368.492 130.208,368.821 129.750 C 369.149 129.292,369.492 128.791,369.584 128.638 C 369.675 128.484,370.301 127.584,370.973 126.638 C 372.182 124.938,374.971 120.919,376.852 118.167 C 377.385 117.388,377.886 116.673,377.965 116.579 C 378.045 116.485,378.253 116.185,378.429 115.912 C 378.604 115.640,379.311 114.629,379.999 113.666 C 380.687 112.704,381.605 111.391,382.039 110.750 C 382.474 110.108,383.066 109.246,383.355 108.833 C 383.645 108.421,384.369 107.371,384.965 106.500 C 385.561 105.629,386.482 104.312,387.013 103.573 C 387.544 102.833,388.032 102.008,388.097 101.739 C 388.163 101.470,388.397 100.837,388.619 100.333 C 390.458 96.149,390.227 90.168,388.064 85.979 C 382.262 74.747,366.425 74.219,359.167 85.015 C 358.571 85.901,357.749 87.104,357.340 87.688 C 356.438 88.978,355.854 89.825,353.949 92.607 C 353.142 93.786,351.552 96.100,350.415 97.750 C 349.279 99.400,347.785 101.575,347.095 102.583 C 346.404 103.592,345.500 104.904,345.085 105.500 C 344.670 106.096,343.745 107.446,343.029 108.500 C 340.751 111.854,338.187 115.577,338.028 115.763 C 337.943 115.862,337.682 116.237,337.448 116.596 C 337.214 116.956,336.362 118.205,335.553 119.373 C 334.745 120.541,333.483 122.375,332.750 123.450 C 332.017 124.524,330.400 126.869,329.158 128.660 C 327.916 130.451,326.544 132.442,326.110 133.083 C 325.676 133.725,324.466 135.487,323.422 137.000 C 322.378 138.512,320.727 140.912,319.752 142.333 C 318.777 143.754,317.304 145.892,316.479 147.083 C 315.655 148.275,314.729 149.625,314.422 150.083 C 314.116 150.542,313.292 151.742,312.592 152.750 C 311.891 153.758,311.193 154.771,311.039 155.000 C 310.886 155.229,309.752 156.879,308.518 158.667 C 307.285 160.454,305.888 162.479,305.414 163.167 C 304.940 163.854,304.222 164.891,303.818 165.470 C 303.414 166.050,302.896 166.815,302.667 167.171 C 302.438 167.527,301.725 168.576,301.083 169.502 C 300.442 170.428,298.664 173.000,297.133 175.218 C 295.602 177.435,293.802 180.035,293.133 180.994 C 292.464 181.953,291.767 182.979,291.583 183.273 C 291.400 183.567,290.769 184.507,290.180 185.362 C 288.461 187.861,285.358 192.339,284.658 193.333 C 284.302 193.838,283.376 195.188,282.598 196.333 C 281.821 197.479,280.768 199.017,280.258 199.750 C 279.748 200.483,278.689 202.021,277.905 203.167 C 277.121 204.313,275.701 206.375,274.749 207.750 C 273.797 209.125,272.148 211.525,271.084 213.083 C 270.021 214.642,268.473 216.892,267.646 218.083 C 266.819 219.275,265.734 220.850,265.236 221.583 C 260.874 228.006,260.941 227.957,259.549 225.755 C 259.110 225.059,257.362 222.494,255.667 220.053 C 253.971 217.613,252.208 215.076,251.750 214.415 C 251.292 213.754,250.597 212.771,250.206 212.232 C 249.081 210.677,246.897 207.584,245.864 206.085 C 245.343 205.329,244.122 203.594,243.150 202.230 C 242.178 200.866,241.049 199.260,240.640 198.661 C 240.232 198.062,239.595 197.162,239.225 196.661 C 238.855 196.160,238.184 195.217,237.734 194.564 C 237.285 193.912,236.204 192.380,235.333 191.159 C 234.463 189.938,233.563 188.659,233.333 188.317 C 233.104 187.975,232.467 187.073,231.917 186.312 C 231.367 185.552,230.729 184.651,230.500 184.312 C 230.271 183.972,229.189 182.431,228.096 180.889 C 227.004 179.346,225.823 177.671,225.474 177.167 C 225.124 176.662,224.277 175.463,223.591 174.500 C 222.905 173.537,222.005 172.262,221.591 171.667 C 221.177 171.071,220.541 170.171,220.179 169.667 C 219.816 169.162,219.178 168.262,218.761 167.667 C 218.344 167.071,217.736 166.208,217.409 165.750 C 217.082 165.292,216.622 164.622,216.386 164.261 C 216.150 163.901,215.566 163.076,215.088 162.428 C 214.610 161.780,213.882 160.762,213.471 160.167 C 213.060 159.571,212.060 158.146,211.249 157.000 C 210.437 155.854,209.299 154.242,208.718 153.417 C 208.137 152.592,207.269 151.362,206.789 150.684 C 206.309 150.007,205.677 149.107,205.385 148.684 C 204.061 146.773,203.028 145.304,202.370 144.398 C 201.977 143.858,200.256 141.429,198.546 139.000 C 196.836 136.571,194.832 133.733,194.093 132.693 C 193.355 131.654,192.484 130.416,192.159 129.943 C 191.833 129.470,190.563 127.658,189.335 125.917 C 188.107 124.175,186.706 122.188,186.222 121.500 C 185.737 120.813,184.945 119.697,184.462 119.021 C 183.979 118.346,183.283 117.363,182.917 116.837 C 181.759 115.177,179.310 111.705,176.745 108.083 C 175.382 106.158,173.945 104.101,173.552 103.511 C 173.159 102.922,172.781 102.397,172.711 102.345 C 172.641 102.293,172.328 101.875,172.015 101.417 C 171.703 100.958,171.140 100.146,170.765 99.612 C 170.390 99.077,169.521 97.833,168.833 96.848 C 168.146 95.862,167.186 94.499,166.700 93.819 C 166.214 93.140,164.736 91.046,163.415 89.167 C 162.094 87.287,160.798 85.450,160.534 85.083 C 160.270 84.717,159.486 83.629,158.792 82.667 C 155.476 78.066,150.254 74.615,144.648 73.317 C 143.130 72.966,136.809 72.711,135.250 72.939 M113.944 288.162 C 113.593 288.230,113.106 288.485,112.861 288.730 L 112.417 289.174 112.417 302.667 L 112.417 316.159 112.856 316.598 C 113.716 317.459,115.750 317.436,116.452 316.557 L 116.832 316.083 116.833 307.375 L 116.833 298.667 124.625 298.672 C 133.415 298.679,134.336 298.761,135.818 299.673 C 137.362 300.623,137.325 300.398,137.330 308.888 L 137.333 316.192 137.821 316.679 C 138.651 317.510,140.895 317.373,141.505 316.453 C 141.817 315.982,141.958 302.802,141.670 300.949 C 140.902 295.997,137.393 294.852,122.958 294.839 L 116.833 294.833 116.833 292.018 L 116.833 289.202 116.350 288.684 C 116.057 288.370,115.701 288.167,115.447 288.167 C 115.216 288.167,114.927 288.138,114.805 288.103 C 114.683 288.068,114.296 288.095,113.944 288.162 M226.944 288.166 C 226.593 288.232,226.106 288.485,225.861 288.730 L 225.417 289.174 225.417 302.684 L 225.417 316.194 225.961 316.680 C 226.970 317.582,229.039 317.386,229.582 316.337 C 230.025 315.479,229.953 289.614,229.505 288.879 C 229.100 288.216,228.127 287.945,226.944 288.166 M11.125 288.286 C 9.652 288.509,9.368 291.474,10.769 292.007 C 11.007 292.098,13.737 292.167,17.094 292.167 L 23.000 292.167 23.000 304.081 L 23.000 315.995 23.463 316.513 C 24.288 317.436,26.423 317.486,27.305 316.604 L 27.750 316.159 27.795 304.163 L 27.840 292.167 33.834 292.167 L 39.828 292.167 40.363 291.689 C 41.470 290.700,40.945 288.506,39.546 288.274 C 38.862 288.161,11.876 288.172,11.125 288.286 M313.896 290.229 C 312.878 290.693,312.440 292.365,313.093 293.297 C 314.233 294.924,317.904 294.346,318.249 292.485 C 318.593 290.634,315.982 289.281,313.896 290.229 M50.167 295.008 C 45.184 295.331,42.292 296.936,41.424 299.861 C 41.046 301.132,41.048 310.872,41.425 312.144 C 41.873 313.653,43.033 314.925,44.759 315.803 C 46.446 316.660,51.508 317.312,55.010 317.123 C 57.101 317.010,57.514 316.690,57.525 315.178 C 57.540 313.360,57.336 313.281,52.333 313.164 C 46.457 313.026,45.689 312.641,45.538 309.759 L 45.455 308.167 57.327 308.167 C 70.394 308.167,69.903 308.205,70.338 307.156 C 70.734 306.199,70.478 299.370,70.012 298.457 C 68.940 296.360,66.705 295.283,62.833 294.997 C 60.426 294.819,52.972 294.825,50.167 295.008 M86.833 295.001 C 83.005 295.258,80.608 296.492,79.393 298.833 L 78.917 299.750 78.917 305.917 L 78.917 312.083 79.384 313.036 C 81.055 316.438,84.051 317.156,96.602 317.163 C 104.940 317.168,105.167 317.119,105.167 315.318 C 105.167 313.166,105.629 313.264,95.083 313.167 L 86.083 313.083 85.204 312.686 C 83.319 311.834,83.169 311.329,83.169 305.833 C 83.169 298.339,82.394 298.804,95.083 298.676 C 104.677 298.579,104.699 298.577,105.089 297.821 C 105.746 296.553,105.165 295.249,103.828 294.992 C 102.953 294.823,89.382 294.830,86.833 295.001 M160.917 295.037 C 156.214 295.295,153.642 295.955,152.166 297.282 C 150.504 298.777,150.590 298.224,150.536 307.692 L 150.488 315.968 150.879 316.422 C 151.324 316.940,152.237 317.159,153.225 316.985 C 154.478 316.764,154.407 317.243,154.500 308.369 C 154.594 299.413,154.530 299.836,155.889 299.182 C 157.240 298.531,158.485 298.461,165.583 298.635 C 172.760 298.811,173.080 298.852,174.098 299.731 L 174.750 300.295 174.833 308.329 L 174.917 316.363 175.384 316.765 C 175.848 317.164,176.405 317.263,177.667 317.174 C 179.371 317.053,179.357 317.135,179.299 307.626 L 179.250 299.583 178.800 298.667 C 177.198 295.408,172.289 294.411,160.917 295.037 M196.583 295.010 C 192.144 295.318,189.011 297.045,188.213 299.624 C 187.838 300.837,187.765 311.085,188.123 312.260 C 189.256 315.978,192.781 317.165,202.667 317.157 C 211.722 317.150,214.812 316.220,216.371 313.032 L 216.917 311.917 216.917 306.083 L 216.917 300.250 216.388 299.130 C 214.615 295.376,208.784 294.162,196.583 295.010 M247.083 295.010 C 242.700 295.314,239.552 297.017,238.730 299.528 C 238.366 300.641,238.189 309.399,238.490 311.345 C 238.797 313.318,239.864 314.819,241.599 315.715 C 245.443 317.699,260.172 317.751,264.083 315.793 C 267.030 314.319,267.500 312.984,267.500 306.083 C 267.500 299.392,267.132 298.198,264.530 296.459 C 262.452 295.070,255.056 294.456,247.083 295.010 M284.583 295.010 C 280.407 295.300,277.677 296.674,276.493 299.083 C 275.958 300.173,275.758 310.712,276.245 312.200 C 277.574 316.264,280.862 317.152,294.609 317.162 C 300.884 317.167,300.968 317.171,300.882 317.500 C 300.533 318.835,298.616 319.361,293.629 319.490 C 289.299 319.602,289.250 319.622,289.250 321.333 C 289.250 323.005,289.387 323.072,292.963 323.137 C 299.914 323.263,303.369 322.084,304.841 319.083 L 305.250 318.250 305.250 309.167 L 305.250 300.083 304.783 299.133 C 302.999 295.499,296.536 294.180,284.583 295.010 M334.500 295.007 C 330.083 295.294,327.359 296.636,326.131 299.130 L 325.583 300.242 325.527 305.217 C 325.466 310.542,325.577 311.809,326.212 313.028 C 327.484 315.474,330.224 316.672,335.333 317.016 C 340.886 317.390,342.000 317.082,342.000 315.174 C 342.000 313.374,341.812 313.300,336.833 313.167 C 334.587 313.106,332.600 313.000,332.417 312.930 C 330.418 312.166,330.122 311.768,330.030 309.708 L 329.960 308.167 341.719 308.167 C 348.789 308.167,353.645 308.103,353.897 308.007 C 355.366 307.449,355.516 299.935,354.099 297.880 C 352.237 295.177,345.994 294.262,334.500 295.007 M369.250 294.997 C 365.686 295.275,363.366 296.510,362.590 298.542 C 362.152 299.688,362.275 303.314,362.784 304.283 C 364.234 307.040,366.094 307.535,375.500 307.664 C 379.396 307.717,382.733 307.821,382.917 307.895 C 384.251 308.435,384.501 308.840,384.498 310.450 C 384.492 313.210,385.090 313.067,373.075 313.167 L 363.007 313.250 362.545 313.712 C 361.867 314.391,361.867 315.942,362.545 316.621 L 363.007 317.083 371.292 317.134 C 383.088 317.206,385.285 316.959,387.303 315.338 C 389.639 313.461,389.853 308.186,387.682 306.015 C 385.910 304.243,384.582 304.006,375.667 303.865 C 366.761 303.724,366.667 303.695,366.667 301.117 C 366.667 298.961,367.419 298.667,372.933 298.667 C 377.105 298.667,377.371 298.599,377.676 297.464 C 377.921 296.554,377.656 295.610,377.042 295.208 C 376.533 294.873,372.301 294.759,369.250 294.997 M314.295 296.614 C 313.520 297.112,313.500 297.361,313.500 306.681 C 313.500 315.774,313.523 316.109,314.199 316.694 C 314.792 317.209,316.566 317.126,317.091 316.559 L 317.500 316.118 317.500 306.735 L 317.500 297.352 317.108 296.897 C 316.599 296.305,315.024 296.147,314.295 296.614 M64.512 299.021 C 65.805 299.609,66.167 300.341,66.167 302.371 L 66.167 304.167 55.833 304.167 L 45.500 304.167 45.501 302.875 C 45.503 300.449,46.222 299.396,48.130 299.025 C 48.654 298.923,49.233 298.807,49.417 298.768 C 50.489 298.536,63.942 298.761,64.512 299.021 M210.127 298.993 C 210.518 299.111,211.155 299.490,211.544 299.835 L 212.250 300.462 212.250 305.887 L 212.250 311.312 211.760 311.823 C 210.543 313.093,210.614 313.083,202.417 313.083 L 195.083 313.083 194.129 312.615 C 192.400 311.766,192.424 311.854,192.368 306.207 C 192.304 299.780,192.504 299.387,196.167 298.772 C 197.236 298.592,209.442 298.785,210.127 298.993 M260.627 298.993 C 261.018 299.111,261.655 299.490,262.044 299.835 L 262.750 300.462 262.750 305.887 L 262.750 311.312 262.260 311.823 C 261.043 313.093,261.115 313.083,252.905 313.083 L 245.560 313.083 244.588 312.583 C 242.871 311.700,242.924 311.897,242.868 306.250 C 242.803 299.767,242.995 299.389,246.667 298.772 C 247.736 298.592,259.942 298.785,260.627 298.993 M297.167 298.843 C 300.641 299.398,300.833 299.846,300.833 307.354 L 300.833 313.167 292.708 313.163 C 279.897 313.158,280.417 313.468,280.417 305.820 L 280.417 300.891 280.870 300.296 C 281.396 299.607,282.485 299.031,283.622 298.840 C 284.816 298.639,295.908 298.641,297.167 298.843 M348.423 298.925 C 350.204 299.389,350.664 300.165,350.666 302.708 L 350.667 304.167 340.311 304.167 L 329.956 304.167 330.033 302.444 C 330.138 300.077,330.730 299.365,332.967 298.920 C 334.713 298.573,347.085 298.577,348.423 298.925 " stroke="none" fill="#ffffff" fill-rule="evenodd"></path><path id="path1" d="" stroke="none" fill="#fffcfc" fill-rule="evenodd"></path><path id="path2" d="M137.250 177.769 C 133.162 178.378,131.326 178.817,128.917 179.758 C 110.763 186.850,103.876 207.957,114.208 224.833 C 121.029 235.974,135.471 241.333,148.537 237.573 C 150.680 236.956,150.845 236.891,153.442 235.651 C 174.423 225.633,176.342 195.652,156.824 182.804 C 151.262 179.142,142.741 176.951,137.250 177.769 " stroke="none" fill="#ffffff" fill-rule="evenodd"></path><path id="path3" d="" stroke="none" fill="#bf3f3f" fill-rule="evenodd"></path><path id="path4" d="" stroke="none" fill="#ff0000" fill-rule="evenodd"></path></g></svg>